<?xml version="1.0" encoding="UTF-8" standalone="no"?>
<!-- Created with Inkscape (http://www.inkscape.org/) -->

<svg
   xmlns:dc="http://purl.org/dc/elements/1.1/"
   xmlns:cc="http://creativecommons.org/ns#"
   xmlns:rdf="http://www.w3.org/1999/02/22-rdf-syntax-ns#"
   xmlns:svg="http://www.w3.org/2000/svg"
   xmlns="http://www.w3.org/2000/svg"
   version="1.1"
   id="svg2">
  <defs
     id="defs4">
  </defs>
  <metadata
     id="metadata7">
    <rdf:RDF>
      <cc:Work
         rdf:about="">
        <dc:format>image/svg+xml</dc:format>
        <dc:type
           rdf:resource="http://purl.org/dc/dcmitype/StillImage" />
        <dc:title></dc:title>
      </cc:Work>
    </rdf:RDF>
  </metadata>
  <g
     transform="scale(0.2)"
     id="layer1">
    <path
       d="m 677.14285,202.36218 a 162.85715,118.57143 0 1 1 -325.71429,0 162.85715,118.57143 0 1 1 325.71429,0 z"
       transform="matrix(0.77192983,0,0,1.0843373,210.74211,12.789731)"
       id="path3767"
       style="stroke-width:14.18299961;stroke-linecap:round;stroke-linejoin:miter;stroke-miterlimit:5.0999999;stroke-dasharray:none" />
    <path
       d="m 274.28572,198.07646 a 110,134.28572 0 1 1 -219.999999,0 110,134.28572 0 1 1 219.999999,0 z"
       transform="matrix(1.0649351,0,0,0.80851065,8.9434135,58.969422)"
       id="path3771"
       style="stroke-width:14.18299961;stroke-linecap:round;stroke-linejoin:miter;stroke-miterlimit:5.0999999;stroke-dasharray:none" />
    <path
       d="m 260.43039,513.55787 c 0,0 -86.81418,46.15459 -84.26082,138.46378 2.55337,92.30917 -48.51378,246.15781 135.32795,252.31172 183.84175,6.1539 219.58876,-49.23156 222.14211,-83.07824 2.55337,-33.84669 0,-172.31045 -63.83393,-246.15781 -63.83394,-73.84734 -209.37531,-61.53945 -209.37531,-61.53945 z"
       id="path3783"
       style="fill:#000000;stroke:#000000;stroke-width:7.90506411;stroke-linecap:butt;stroke-linejoin:miter;stroke-miterlimit:4;stroke-opacity:1;stroke-dasharray:none" />
    <path
       d="m 274.28572,198.07646 a 110,134.28572 0 1 1 -219.999999,0 110,134.28572 0 1 1 219.999999,0 z"
       transform="matrix(0.40352036,0,0,0.42780007,180.7487,232.54456)"
       id="path3785"
       style="fill:#ffffff;stroke-width:14.18299961;stroke-linecap:round;stroke-linejoin:miter;stroke-miterlimit:5.0999999;stroke-dasharray:none" />
    <path
       d="m 274.28572,198.07646 a 110,134.28572 0 1 1 -219.999999,0 110,134.28572 0 1 1 219.999999,0 z"
       transform="matrix(0.39433715,0,0,0.40963936,444.45099,253.70303)"
       id="path3787"
       style="fill:#ffffff;stroke-width:14.18299961;stroke-linecap:round;stroke-linejoin:miter;stroke-miterlimit:5.0999999;stroke-dasharray:none" />
    <path
       d="m 425.73944,850.27045 c 0,0 -25.69244,10.86233 -24.93677,32.587 0.75566,21.72468 -14.35754,57.93247 40.04996,59.38077 54.40751,1.4483 64.98674,-11.58649 65.7424,-19.5522 0.75566,-7.96571 0,-40.55272 -18.89149,-57.93246 -18.8915,-17.37975 -61.9641,-14.48311 -61.9641,-14.48311 z"
       id="path3812"
       style="fill:#000000;stroke:#000000;stroke-width:3.62472653;stroke-linecap:butt;stroke-linejoin:miter;stroke-miterlimit:4;stroke-opacity:1;stroke-dasharray:none" />
    <path
       d="m 231.45372,853.12759 c 0,0 -25.69244,10.86233 -24.93677,32.587 0.75566,21.72468 -14.35754,57.93247 40.04996,59.38077 54.40751,1.4483 64.98674,-11.58649 65.7424,-19.5522 0.75566,-7.96571 0,-40.55272 -18.89149,-57.93246 -18.8915,-17.37975 -61.9641,-14.48311 -61.9641,-14.48311 z"
       id="path3816"
       style="fill:#000000;stroke:#000000;stroke-width:3.62472653;stroke-linecap:butt;stroke-linejoin:miter;stroke-miterlimit:4;stroke-opacity:1;stroke-dasharray:none" />
    <path
       d="m 466.15634,623.27563 c 0,0 -18.22988,25.86955 -7.70823,66.18875 10.52166,40.31918 13.30515,111.1038 62.9853,101.88628 49.68018,-9.21752 53.30819,-35.82542 50.3808,-50.83528 -2.92739,-15.00991 -18.36943,-75.57143 -43.26433,-103.82152 -24.89488,-28.2501 -62.39354,-13.41823 -62.39354,-13.41823 z"
       id="path3830"
       style="fill:#000000;stroke:#000000;stroke-width:4.83375835;stroke-linecap:butt;stroke-linejoin:miter;stroke-miterlimit:4;stroke-opacity:1;stroke-dasharray:none" />
    <path
       d="m 202.83611,615.37686 c 0,0 25.16548,20.14828 24.42532,60.44489 -0.74014,40.29661 14.06308,107.45764 -39.22856,110.14405 -53.29168,2.68643 -63.65394,-21.49151 -64.39411,-36.26692 -0.74016,-14.77544 0,-75.22033 18.50407,-107.45764 18.50406,-32.2373 60.69328,-26.86438 60.69328,-26.86438 z"
       id="path3832"
       style="fill:#000000;stroke:#000000;stroke-width:4.88577032;stroke-linecap:butt;stroke-linejoin:miter;stroke-miterlimit:4;stroke-opacity:1;stroke-dasharray:none" />
    <path
       d="M 323.76113,123.08627 C 917.23669,86.394663 714.79577,641.06247 387.96248,646.91856 -203.7842,663.94097 113.26656,111.83325 323.76113,123.08627 z"
       id="path5423"
       style="fill:#ffffff;fill-opacity:1;stroke:none" />
    <path
       d="m 274.28572,198.07646 a 110,134.28572 0 1 1 -219.999999,0 110,134.28572 0 1 1 219.999999,0 z"
       transform="matrix(0.24519405,0,0,0.1141403,828.15225,339.06581)"
       id="path3840"
       style="fill:#ffffff;stroke-width:14.18299961;stroke-linecap:round;stroke-linejoin:miter;stroke-miterlimit:5.0999999;stroke-dasharray:none" />
    <path
       d="m 274.28572,198.07646 a 110,134.28572 0 1 1 -219.999999,0 110,134.28572 0 1 1 219.999999,0 z"
       transform="matrix(0.19973951,0,0,0.11945945,230.84087,294.72794)"
       id="path3844"
       style="fill:#ffffff;stroke-width:14.18299961;stroke-linecap:round;stroke-linejoin:miter;stroke-miterlimit:5.0999999;stroke-dasharray:none" />
    <path
       d="m 225.29554,463.35991 c 0,0 9.00653,23.97798 70.95246,50.15252 61.94598,26.17455 157.92355,8.28816 157.92355,8.28816 l -4.93603,-0.89905"
       id="path3846"
       style="fill:none;stroke:#000000;stroke-width:12.45300007;stroke-linecap:round;stroke-linejoin:miter;stroke-miterlimit:4;stroke-opacity:1;stroke-dasharray:none" />
    <path
       d="m 256.39309,657.25199 c 0,0 -91.97617,25.69836 -89.27096,77.09507 2.70519,51.3967 -51.39842,137.05788 143.37455,140.4843 194.773,3.42643 232.64553,-27.41156 235.35069,-46.25702 2.7052,-18.84545 0,-95.9405 -67.62951,-137.05787 -67.6295,-41.11737 -221.82477,-34.26448 -221.82477,-34.26448 z"
       id="path3882"
       style="fill:#ffffff;stroke:none" />
    <path
       d="m 363.62817,248.96355 c 0,0 4.56176,31.91308 -23.55426,60.78962 -28.116,28.87656 -63.28248,87.97865 -103.97951,53.46825 -40.69707,-34.5104 -31.70714,-59.23145 -22.13554,-70.51175 9.57162,-11.28032 51.47577,-54.84837 87.02943,-65.69187 35.55365,-10.8435 62.63988,21.94575 62.63988,21.94575 z"
       id="path5409"
       style="fill:#000000;stroke:#000000;stroke-width:4.88577032;stroke-linecap:butt;stroke-linejoin:miter;stroke-miterlimit:4;stroke-opacity:1;stroke-dasharray:none" />
    <a
       id="a5639">
      <path
         d="m 436.74915,265.00732 c 0,0 -14.26483,28.83641 2.67213,65.07558 16.93693,36.23918 30.88826,103.36819 79.41689,83.43919 48.52866,-19.92899 47.98697,-46.20772 42.67731,-59.91994 -5.30968,-13.71224 -30.38564,-68.22628 -59.8815,-89.70029 -29.49586,-21.474 -64.88483,1.10546 -64.88483,1.10546 z"
         id="path5411"
         style="fill:#000000;stroke:#000000;stroke-width:4.82929802;stroke-linecap:butt;stroke-linejoin:miter;stroke-miterlimit:4;stroke-opacity:1;stroke-dasharray:none" />
    </a>
    <path
       d="m 274.28572,198.07646 a 110,134.28572 0 1 1 -219.999999,0 110,134.28572 0 1 1 219.999999,0 z"
       transform="matrix(0.23227699,0.03795908,-0.04280797,0.26194804,443.13661,243.70559)"
       id="path3838"
       style="fill:#ffffff;stroke-width:14.18299961;stroke-linecap:round;stroke-linejoin:miter;stroke-miterlimit:5.0999999;stroke-dasharray:none" />
    <path
       d="m 274.28572,198.07646 a 110,134.28572 0 1 1 -219.999999,0 110,134.28572 0 1 1 219.999999,0 z"
       transform="matrix(0.23548124,0.03848273,-0.0492421,0.30131939,290.37486,207.47728)"
       id="path5413"
       style="fill:#ffffff;stroke-width:14.18299961;stroke-linecap:round;stroke-linejoin:miter;stroke-miterlimit:5.0999999;stroke-dasharray:none" />
    <path
       d="m 344.28571,456.29076 -20,63.21429"
       id="path5417"
       style="fill:none;stroke:#000000;stroke-width:17.36964417;stroke-linecap:butt;stroke-linejoin:miter;stroke-miterlimit:4;stroke-opacity:1;stroke-dasharray:none" />
    <path
       d="m 274.28572,198.07646 a 110,134.28572 0 1 1 -219.999999,0 110,134.28572 0 1 1 219.999999,0 z"
       transform="matrix(0.4493572,0,0,0.24468089,279.89206,393.89663)"
       id="path3773"
       style="stroke-width:14.18299961;stroke-linecap:round;stroke-linejoin:miter;stroke-miterlimit:5.0999999;stroke-dasharray:none" />
    <path
       d="m 274.28572,198.07646 a 110,134.28572 0 1 1 -219.999999,0 110,134.28572 0 1 1 219.999999,0 z"
       transform="matrix(0.20169515,0.03296135,-0.03737522,0.22870426,459.45132,244.93649)"
       id="path5419"
       style="fill:#000000;stroke-width:14.18299961;stroke-linecap:round;stroke-linejoin:miter;stroke-miterlimit:5.0999999;stroke-dasharray:none" />
    <path
       d="m 274.28572,198.07646 a 110,134.28572 0 1 1 -219.999999,0 110,134.28572 0 1 1 219.999999,0 z"
       transform="matrix(0.19075516,0.03117352,-0.03677753,0.22504693,306.0635,214.99137)"
       id="path5421"
       style="fill:#000000;stroke-width:14.18299961;stroke-linecap:round;stroke-linejoin:miter;stroke-miterlimit:5.0999999;stroke-dasharray:none" />
    <path
       d="m 274.28572,198.07646 a 110,134.28572 0 1 1 -219.999999,0 110,134.28572 0 1 1 219.999999,0 z"
       transform="matrix(0.06449443,0.00806837,-0.01542114,0.07223733,328.62511,239.72672)"
       id="path5445"
       style="fill:#ffffff;stroke-width:14.18299961;stroke-linecap:round;stroke-linejoin:miter;stroke-miterlimit:5.0999999;stroke-dasharray:none" />
    <path
       d="m 274.28572,198.07646 a 110,134.28572 0 1 1 -219.999999,0 110,134.28572 0 1 1 219.999999,0 z"
       transform="matrix(0.066743,0.009326,-0.0159588,0.08349707,478.57249,265.35013)"
       id="path5447"
       style="fill:#ffffff;stroke-width:14.18299961;stroke-linecap:round;stroke-linejoin:miter;stroke-miterlimit:5.0999999;stroke-dasharray:none" />
  </g>
</svg>
