<?xml version="1.0" encoding="utf-8"?>
<!-- Generator: Adobe Illustrator 15.1.0, SVG Export Plug-In . SVG Version: 6.00 Build 0)  -->
<!DOCTYPE svg PUBLIC "-//W3C//DTD SVG 1.1//EN" "http://www.w3.org/Graphics/SVG/1.1/DTD/svg11.dtd">
<svg version="1.1" xmlns="http://www.w3.org/2000/svg" xmlns:xlink="http://www.w3.org/1999/xlink" x="0px" y="0px" width="200px"
	 height="200px" viewBox="0 0 200 200" enable-background="new 0 0 200 200" xml:space="preserve">
<g id="sharpish" display="none">
	<linearGradient id="SVGID_1_" gradientUnits="userSpaceOnUse" x1="58.1992" y1="82.186" x2="182.0195" y2="82.186">
		<stop  offset="0.4776" style="stop-color:#FF4D2E"/>
		<stop  offset="0.5758" style="stop-color:#EF4328"/>
		<stop  offset="0.7676" style="stop-color:#C52917"/>
		<stop  offset="1" style="stop-color:#8B0400"/>
	</linearGradient>
	<path display="inline" fill="url(#SVGID_1_)" d="M182.02,42.785c0,0-10.97,25.351-27.827,49.993S88.22,152.099,88.22,152.099
		l-30.021-30.402c0,0,45.042-31.744,63.468-59.029C139,37,148.033,12.273,148.033,12.273s5.205,1.67,18.712,13.266
		C173.458,31.302,182.02,42.785,182.02,42.785"/>
	<linearGradient id="SVGID_2_" gradientUnits="userSpaceOnUse" x1="-0.1958" y1="118.9834" x2="121.249" y2="118.9834">
		<stop  offset="0.2761" style="stop-color:#FF4D2E"/>
		<stop  offset="0.4122" style="stop-color:#EF4328"/>
		<stop  offset="0.6779" style="stop-color:#C52917"/>
		<stop  offset="1" style="stop-color:#8B0400"/>
	</linearGradient>
	<path display="inline" fill="url(#SVGID_2_)" d="M2.157,85.687c0,0,25.861-1.603,47.701,4.813
		C89,102,121.249,126.386,121.249,126.386L88.22,152.099c4.706,3.968-28.835-26.168-54.513-28.631
		c-24.513-2.352-31.163-0.958-31.163-0.958S1,119,0,103S2.157,85.687,2.157,85.687"/>
</g>
<g id="roundish" display="none">
	
		<linearGradient id="SVGID_3_" gradientUnits="userSpaceOnUse" x1="99.3965" y1="115.041" x2="176.2803" y2="115.041" gradientTransform="matrix(-0.9821 -0.1884 0.1884 -0.9821 264.5716 210.0317)">
		<stop  offset="0" style="stop-color:#FF7A5C"/>
		<stop  offset="1" style="stop-color:#FF4D2E"/>
	</linearGradient>
	<path fill="url(#SVGID_3_)" d="M113.007,64.409c10.864-2.972,31.894-17.872,50.479-9.167c17.145,8.028,21.596,41.547,21.596,41.547
		L113.007,64.409z"/>
	
		<linearGradient id="SVGID_4_" gradientUnits="userSpaceOnUse" x1="86.6035" y1="116.127" x2="197.3918" y2="47.0632" gradientTransform="matrix(0.9986 -0.0534 0.0534 0.9986 -4.8432 13.2374)">
		<stop  offset="0.0182" style="stop-color:#B30000"/>
		<stop  offset="0.0462" style="stop-color:#BA0704"/>
		<stop  offset="0.1714" style="stop-color:#D32013"/>
		<stop  offset="0.3104" style="stop-color:#E7341F"/>
		<stop  offset="0.4689" style="stop-color:#F44228"/>
		<stop  offset="0.6636" style="stop-color:#FD4B2D"/>
		<stop  offset="1" style="stop-color:#FF4D2E"/>
	</linearGradient>
	<path display="inline" fill="url(#SVGID_4_)" d="M177.876,72.784c-2.716,4.729-3.505,6.904-16.199,23.576
		c-27.261,35.801-58.329,61.373-58.329,61.373L81.166,137.55c0,0,40.033-39.954,54.06-58.319
		c20.128-26.352,29.893-52.789,29.893-52.789S180.592,68.055,177.876,72.784z"/>
	
		<linearGradient id="SVGID_5_" gradientUnits="userSpaceOnUse" x1="13.4907" y1="138.8037" x2="124.7734" y2="138.8037" gradientTransform="matrix(0.9846 0.175 -0.175 0.9846 18.428 -16.2197)">
		<stop  offset="0.0182" style="stop-color:#B30000"/>
		<stop  offset="0.0462" style="stop-color:#BA0704"/>
		<stop  offset="0.1714" style="stop-color:#D32013"/>
		<stop  offset="0.3104" style="stop-color:#E7341F"/>
		<stop  offset="0.4689" style="stop-color:#F44228"/>
		<stop  offset="0.6636" style="stop-color:#FD4B2D"/>
		<stop  offset="1" style="stop-color:#FF4D2E"/>
	</linearGradient>
	<path display="inline" fill="url(#SVGID_5_)" d="M22.206,100.809c0,0,8.237,8.23,38.596,20.53
		c31.279,12.672,55.636,23.989,55.636,23.989s-12.281,16.854-27.904,16.348c-10.288-0.333-30.008-12.484-48.711-20.936
		c-17.25-7.795-24.259-12.885-24.259-12.885s-9.616-2.216-6.458-14.128C12.154,102.223,22.206,100.809,22.206,100.809"/>
</g>
<g id="ribbonish">
	
		<linearGradient id="SVGID_6_" gradientUnits="userSpaceOnUse" x1="181.2588" y1="57.6953" x2="219.4854" y2="57.6953" gradientTransform="matrix(-0.9821 -0.1884 0.1884 -0.9821 264.5716 210.0317)">
		<stop  offset="0" style="stop-color:#FF7A5C"/>
		<stop  offset="1" style="stop-color:#FF4D2E"/>
	</linearGradient>
	<path display="none" fill="url(#SVGID_6_)" d="M59.828,112.309c5.401-1.479,15.858-8.886,25.099-4.559
		c8.524,3.991,10.737,20.657,10.737,20.657L59.828,112.309z"/>
	
		<linearGradient id="SVGID_7_" gradientUnits="userSpaceOnUse" x1="40.3359" y1="129.335" x2="95.4211" y2="94.9957" gradientTransform="matrix(0.9986 -0.0534 0.0534 0.9986 -4.8432 13.2374)">
		<stop  offset="0.0182" style="stop-color:#B30000"/>
		<stop  offset="0.0462" style="stop-color:#BA0704"/>
		<stop  offset="0.1714" style="stop-color:#D32013"/>
		<stop  offset="0.3104" style="stop-color:#E7341F"/>
		<stop  offset="0.4689" style="stop-color:#F44228"/>
		<stop  offset="0.6636" style="stop-color:#FD4B2D"/>
		<stop  offset="1" style="stop-color:#FF4D2E"/>
	</linearGradient>
	<path fill="url(#SVGID_7_)" d="M87.109,114.483c-1.35,2.352-1.742,3.433-8.054,11.722c-13.554,17.802-29.002,30.516-29.002,30.516
		l-11.029-10.035c0,0,19.905-19.865,26.879-28.997c10.007-13.103,14.863-26.247,14.863-26.247S88.46,112.132,87.109,114.483z"/>
	
		<linearGradient id="SVGID_8_" gradientUnits="userSpaceOnUse" x1="13.0825" y1="155.5996" x2="66.7363" y2="155.5996" gradientTransform="matrix(0.9846 0.175 -0.175 0.9846 18.428 -16.2197)">
		<stop  offset="0.0182" style="stop-color:#B30000"/>
		<stop  offset="0.0462" style="stop-color:#BA0704"/>
		<stop  offset="0.1714" style="stop-color:#D32013"/>
		<stop  offset="0.3104" style="stop-color:#E7341F"/>
		<stop  offset="0.4689" style="stop-color:#F44228"/>
		<stop  offset="0.6636" style="stop-color:#FD4B2D"/>
		<stop  offset="1" style="stop-color:#FF4D2E"/>
	</linearGradient>
	<path fill="url(#SVGID_8_)" d="M28.898,138.626c15.552,6.3,27.663,11.928,27.663,11.928s-6.106,8.38-13.875,8.128
		c-5.115-0.165-14.92-6.207-24.22-10.41c-12.747-5.759-4.25-1.618,4.937-3.972L6.25,127.021L28.898,138.626z"/>
	<text transform="matrix(1 0 0 1 153 183.5)" display="none" font-family="'MyriadPro-Regular'" font-size="12">v</text>
</g>
<g id="Layer_4">
	<text transform="matrix(1 0 0 1 82.5234 158.6875)" font-family="'ErasITC-Light'" font-size="39.6357">Toney</text>
</g>
</svg>
