<?xml version="1.0" encoding="utf-8"?>
<!-- Generator: Adobe Illustrator 15.1.0, SVG Export Plug-In . SVG Version: 6.00 Build 0)  -->
<!DOCTYPE svg PUBLIC "-//W3C//DTD SVG 1.1//EN" "http://www.w3.org/Graphics/SVG/1.1/DTD/svg11.dtd">
<svg version="1.1" xmlns="http://www.w3.org/2000/svg" xmlns:xlink="http://www.w3.org/1999/xlink" x="0px" y="0px" width="200px"
	 height="200px" viewBox="0 0 200 200" enable-background="new 0 0 200 200" xml:space="preserve">
<g id="sharpish" display="none">
	<linearGradient id="SVGID_1_" gradientUnits="userSpaceOnUse" x1="58.1992" y1="82.186" x2="182.0195" y2="82.186">
		<stop  offset="0.4776" style="stop-color:#FF4D2E"/>
		<stop  offset="0.5758" style="stop-color:#EF4328"/>
		<stop  offset="0.7676" style="stop-color:#C52917"/>
		<stop  offset="1" style="stop-color:#8B0400"/>
	</linearGradient>
	<path display="inline" fill="url(#SVGID_1_)" d="M182.02,42.785c0,0-10.97,25.351-27.827,49.993S88.22,152.099,88.22,152.099
		l-30.021-30.402c0,0,45.042-31.744,63.468-59.029C139,37,148.033,12.273,148.033,12.273s5.205,1.67,18.712,13.266
		C173.458,31.302,182.02,42.785,182.02,42.785"/>
	<linearGradient id="SVGID_2_" gradientUnits="userSpaceOnUse" x1="-0.1958" y1="118.9834" x2="121.249" y2="118.9834">
		<stop  offset="0.2761" style="stop-color:#FF4D2E"/>
		<stop  offset="0.4122" style="stop-color:#EF4328"/>
		<stop  offset="0.6779" style="stop-color:#C52917"/>
		<stop  offset="1" style="stop-color:#8B0400"/>
	</linearGradient>
	<path display="inline" fill="url(#SVGID_2_)" d="M2.157,85.687c0,0,25.861-1.603,47.701,4.813
		C89,102,121.249,126.386,121.249,126.386L88.22,152.099c4.706,3.968-28.835-26.168-54.513-28.631
		c-24.513-2.352-31.163-0.958-31.163-0.958S1,119,0,103S2.157,85.687,2.157,85.687"/>
</g>
<g id="roundish">
	
		<linearGradient id="SVGID_3_" gradientUnits="userSpaceOnUse" x1="99.3965" y1="115.041" x2="176.2803" y2="115.041" gradientTransform="matrix(-0.9821 -0.1884 0.1884 -0.9821 264.5716 210.0317)">
		<stop  offset="0" style="stop-color:#FF7A5C"/>
		<stop  offset="1" style="stop-color:#FF4D2E"/>
	</linearGradient>
	<path display="none" fill="url(#SVGID_3_)" d="M113.007,64.409c10.864-2.972,31.894-17.872,50.479-9.167
		c17.145,8.028,21.596,41.547,21.596,41.547L113.007,64.409z"/>
	
		<linearGradient id="SVGID_4_" gradientUnits="userSpaceOnUse" x1="41.1436" y1="134.4932" x2="89.937" y2="104.0761" gradientTransform="matrix(0.9986 -0.0534 0.0534 0.9986 -4.8432 13.2374)">
		<stop  offset="0.0182" style="stop-color:#B30000"/>
		<stop  offset="0.0462" style="stop-color:#BA0704"/>
		<stop  offset="0.1714" style="stop-color:#D32013"/>
		<stop  offset="0.3104" style="stop-color:#E7341F"/>
		<stop  offset="0.4689" style="stop-color:#F44228"/>
		<stop  offset="0.6636" style="stop-color:#FD4B2D"/>
		<stop  offset="1" style="stop-color:#FF4D2E"/>
	</linearGradient>
	<path fill="url(#SVGID_4_)" d="M83.078,122.532c-1.196,2.082-1.543,3.04-7.134,10.384c-12.006,15.768-25.689,27.029-25.689,27.029
		l-9.769-8.889c0,0,17.631-17.597,23.809-25.686c8.865-11.605,13.165-23.249,13.165-23.249S84.274,120.449,83.078,122.532z"/>
	
		<linearGradient id="SVGID_5_" gradientUnits="userSpaceOnUse" x1="17.8794" y1="160.123" x2="66.8901" y2="160.123" gradientTransform="matrix(0.9846 0.175 -0.175 0.9846 18.428 -16.2197)">
		<stop  offset="0.0182" style="stop-color:#B30000"/>
		<stop  offset="0.0462" style="stop-color:#BA0704"/>
		<stop  offset="0.1714" style="stop-color:#D32013"/>
		<stop  offset="0.3104" style="stop-color:#E7341F"/>
		<stop  offset="0.4689" style="stop-color:#F44228"/>
		<stop  offset="0.6636" style="stop-color:#FD4B2D"/>
		<stop  offset="1" style="stop-color:#FF4D2E"/>
	</linearGradient>
	<path fill="url(#SVGID_5_)" d="M14.518,134.875c0,0,3.628,3.625,16.998,9.042c13.776,5.581,24.503,10.565,24.503,10.565
		s-5.409,7.423-12.29,7.199c-4.531-0.146-13.216-5.498-21.454-9.22c-7.597-3.434-10.684-5.675-10.684-5.675
		s-4.235-0.977-2.845-6.223C10.091,135.498,14.518,134.875,14.518,134.875"/>
</g>
<g id="ribbonish" display="none">
	
		<linearGradient id="SVGID_6_" gradientUnits="userSpaceOnUse" x1="181.2588" y1="57.6953" x2="219.4854" y2="57.6953" gradientTransform="matrix(-0.9821 -0.1884 0.1884 -0.9821 264.5716 210.0317)">
		<stop  offset="0" style="stop-color:#FF7A5C"/>
		<stop  offset="1" style="stop-color:#FF4D2E"/>
	</linearGradient>
	<path fill="url(#SVGID_6_)" d="M59.828,112.309c5.401-1.479,15.858-8.886,25.099-4.559c8.524,3.991,10.737,20.657,10.737,20.657
		L59.828,112.309z"/>
	
		<linearGradient id="SVGID_7_" gradientUnits="userSpaceOnUse" x1="40.3359" y1="129.335" x2="95.4211" y2="94.9957" gradientTransform="matrix(0.9986 -0.0534 0.0534 0.9986 -4.8432 13.2374)">
		<stop  offset="0.0182" style="stop-color:#B30000"/>
		<stop  offset="0.0462" style="stop-color:#BA0704"/>
		<stop  offset="0.1714" style="stop-color:#D32013"/>
		<stop  offset="0.3104" style="stop-color:#E7341F"/>
		<stop  offset="0.4689" style="stop-color:#F44228"/>
		<stop  offset="0.6636" style="stop-color:#FD4B2D"/>
		<stop  offset="1" style="stop-color:#FF4D2E"/>
	</linearGradient>
	<path display="inline" fill="url(#SVGID_7_)" d="M87.109,114.483c-1.35,2.352-1.742,3.433-8.054,11.722
		c-13.554,17.802-29.002,30.516-29.002,30.516l-11.029-10.035c0,0,19.905-19.865,26.879-28.997
		c10.007-13.103,14.863-26.247,14.863-26.247S88.46,112.132,87.109,114.483z"/>
	
		<linearGradient id="SVGID_8_" gradientUnits="userSpaceOnUse" x1="13.0825" y1="155.5996" x2="66.7363" y2="155.5996" gradientTransform="matrix(0.9846 0.175 -0.175 0.9846 18.428 -16.2197)">
		<stop  offset="0.0182" style="stop-color:#B30000"/>
		<stop  offset="0.0462" style="stop-color:#BA0704"/>
		<stop  offset="0.1714" style="stop-color:#D32013"/>
		<stop  offset="0.3104" style="stop-color:#E7341F"/>
		<stop  offset="0.4689" style="stop-color:#F44228"/>
		<stop  offset="0.6636" style="stop-color:#FD4B2D"/>
		<stop  offset="1" style="stop-color:#FF4D2E"/>
	</linearGradient>
	<path display="inline" fill="url(#SVGID_8_)" d="M28.898,138.626c15.552,6.3,27.663,11.928,27.663,11.928s-6.106,8.38-13.875,8.128
		c-5.115-0.165-14.92-6.207-24.22-10.41c-12.747-5.759-4.25-1.618,4.937-3.972L6.25,127.021L28.898,138.626z"/>
	<text transform="matrix(1 0 0 1 153 183.5)" font-family="'MyriadPro-Regular'" font-size="12">v</text>
</g>
<g id="Layer_4">
	<text transform="matrix(1 0 0 1 82.5234 158.6875)" font-family="'ErasITC-Light'" font-size="39.6357">Toney</text>
</g>
</svg>
